<?xml version="1.0" encoding="utf-8"?>
<!-- Generator: Adobe Illustrator 16.0.0, SVG Export Plug-In . SVG Version: 6.00 Build 0)  -->
<!DOCTYPE svg PUBLIC "-//W3C//DTD SVG 1.1//EN" "http://www.w3.org/Graphics/SVG/1.1/DTD/svg11.dtd">
<svg version="1.1" id="money" xmlns="http://www.w3.org/2000/svg" xmlns:xlink="http://www.w3.org/1999/xlink" x="0px" y="0px"
	 width="291px" height="256px" viewBox="0 0 291 256" enable-background="new 0 0 291 256" xml:space="preserve">
<g id="parts">
	<rect x="9.375" y="12.125" fill="#89DBBA" width="271.875" height="150"/>
	<path fill="#B1F1A8" d="M262.5,124.625v-75c-10.354,0-18.75-8.396-18.75-18.75H46.875c0,10.354-8.396,18.75-18.75,18.75v75
		c10.354,0,18.75,8.396,18.75,18.75H243.75C243.75,133.021,252.146,124.625,262.5,124.625"/>
	<g opacity="0.2" enable-background="new    ">
		<g>
			<defs>
				<rect id="SVGID_1_" x="9.375" y="87.125" width="271.875" height="75"/>
			</defs>
			<clipPath id="SVGID_2_">
				<use xlink:href="#SVGID_1_"  overflow="visible"/>
			</clipPath>
			<rect x="9.375" y="87.125" clip-path="url(#SVGID_2_)" fill="#153E6B" width="271.875" height="75"/>
		</g>
	</g>
	<path fill="#89DBBA" d="M145.313,30.875c23.3,0,42.188,25.186,42.188,56.25s-18.888,56.25-42.188,56.25
		c-23.303,0-42.188-25.186-42.188-56.25S122.01,30.875,145.313,30.875"/>
	<path fill="#B1F1A8" d="M175.937,125.735c-5.067-4.791-11.307-8.158-18.095-9.755c-1.195-0.197-2.061-1.252-2.015-2.465
		c0.056-1.328,0.056-2.728,0.051-4.191c0-3.355,4.037-7.402,4.257-12.112c1.245-2.396,1.964-5.021,2.115-7.711
		c0.092-1.069-0.252-2.138-0.957-2.943c0.33-1.758,0.609-3.614,0.957-5.528c2.068-6.53-1.529-13.504-8.048-15.614
		c-2.436-0.863-12.536-2.614-16.299-6.262c-1.359-1.316-0.433,6.118-1.666,6.67c-6.29,2.124-9.764,8.846-7.86,15.207
		c0.341,1.914,0.623,3.77,0.957,5.528c-0.707,0.806-1.055,1.874-0.957,2.943c0.151,2.689,0.868,5.314,2.11,7.711
		c0.224,4.71,4.259,8.517,4.259,12.112c-0.004,1.463-0.004,2.863,0.053,4.191c0.042,1.213-0.821,2.268-2.021,2.465
		c-6.782,1.598-13.025,4.964-18.088,9.755c6.692,10.544,18.141,17.141,30.622,17.64C157.796,142.876,169.24,136.279,175.937,125.735
		"/>
	<path fill="#6060A5" d="M281.25,166.813h-46.875c-2.586,0-4.688-2.097-4.688-4.688s2.102-4.688,4.688-4.688h42.188V16.813h-262.5
		v140.625h52.05c2.586,0,4.688,2.097,4.688,4.688s-2.101,4.688-4.688,4.688H9.375c-2.586,0-4.688-2.097-4.688-4.683v-0.005v-150
		c0-2.586,2.094-4.688,4.688-4.688H281.25c2.586,0,4.688,2.094,4.688,4.688v150C285.938,164.711,283.841,166.813,281.25,166.813z"/>
	<path fill="#6060A5" d="M243.75,148.063h-9.375c-2.586,0-4.688-2.097-4.688-4.688s2.102-4.688,4.688-4.688h5.159
		c1.896-9.196,9.082-16.383,18.278-18.276V53.839c-9.196-1.893-16.383-9.08-18.278-18.276H51.089
		c-1.893,9.196-9.08,16.383-18.276,18.276v66.572c9.196,1.893,16.383,9.08,18.276,18.276H79.72c2.588,0,4.688,2.097,4.688,4.688
		s-2.099,4.688-4.688,4.688H46.875c-2.586,0-4.688-2.097-4.688-4.683v-0.005c-0.009-7.764-6.301-14.053-14.063-14.063
		c-2.586,0-4.688-2.094-4.688-4.688v-75c0-2.586,2.094-4.688,4.688-4.688c7.761-0.009,14.053-6.301,14.063-14.063
		c0-2.586,2.094-4.688,4.688-4.688H243.75c2.586,0,4.688,2.094,4.688,4.688c0.009,7.761,6.299,14.053,14.063,14.063
		c2.586,0,4.688,2.094,4.688,4.688v75c0,2.586-2.097,4.688-4.688,4.688c-7.764,0.009-14.054,6.299-14.063,14.063
		C248.438,145.961,246.341,148.063,243.75,148.063z"/>
	<path fill="#6060A5" d="M122.246,138.88c-1.136,0-2.232-0.412-3.081-1.158c-13.751-13.177-21.279-31.556-20.728-50.597
		c0-33.6,21.03-60.938,46.875-60.938c25.846,0,46.875,27.338,46.875,60.938c0,6.759-0.884,13.49-2.628,20.021
		c-0.663,2.504-3.227,3.994-5.73,3.332c-2.505-0.661-3.992-3.229-3.328-5.729c0-0.009,0-0.014,0.005-0.023
		c1.528-5.743,2.302-11.657,2.307-17.601c0-28.43-16.822-51.563-37.5-51.563c-20.677,0-37.5,23.133-37.5,51.563
		c-0.567,16.331,5.795,32.142,17.514,43.533c1.95,1.701,2.151,4.665,0.449,6.615C124.885,138.294,123.601,138.875,122.246,138.88"/>
	<path fill="#89DBBA" d="M225,77.75c5.173,0,9.375,4.2,9.375,9.375S230.173,96.5,225,96.5s-9.375-4.2-9.375-9.375
		S219.827,77.75,225,77.75"/>
	<path fill="#51519E" d="M225,101.188c-7.769,0-14.063-6.294-14.063-14.063S217.231,73.063,225,73.063s14.063,6.294,14.063,14.063
		C239.054,94.886,232.764,101.178,225,101.188 M225,82.438c-2.586,0-4.688,2.101-4.688,4.688s2.102,4.688,4.688,4.688
		s4.688-2.101,4.688-4.688S227.586,82.438,225,82.438"/>
	<path fill="#E0A13B" d="M150,213.688v18.75c0,7.769,14.689,14.063,32.813,14.063s32.813-6.294,32.813-14.063v-18.75"/>
	<path fill="#FFF27D" d="M150,194.938v18.75c0,7.769,14.689,14.063,32.813,14.063s32.813-6.294,32.813-14.063v-18.75"/>
	<g opacity="0.5" enable-background="new    ">
		<g>
			<defs>
				<rect id="SVGID_3_" x="150" y="194.938" width="33.596" height="32.424"/>
			</defs>
			<clipPath id="SVGID_4_">
				<use xlink:href="#SVGID_3_"  overflow="visible"/>
			</clipPath>
			<path clip-path="url(#SVGID_4_)" fill="#FFFFFF" d="M182.813,209C164.689,209,150,202.706,150,194.938v18.75
				c0,6.646,10.775,12.204,25.246,13.674h8.35v-18.38C183.334,208.986,183.073,209,182.813,209"/>
		</g>
	</g>
	<path fill="#FFF27D" d="M182.813,227.75c-18.123,0-32.813-6.294-32.813-14.063v18.75c0,6.646,10.775,12.204,25.246,13.674h8.35
		v-18.38C183.334,227.736,183.073,227.75,182.813,227.75"/>
	<path fill="#E0A13B" d="M150,176.188v18.75c0,7.769,14.689,14.063,32.813,14.063s32.813-6.294,32.813-14.063v-18.75"/>
	<path fill="#FFF27D" d="M150,157.438v18.75c0,7.769,14.689,14.063,32.813,14.063s32.813-6.294,32.813-14.063v-18.75"/>
	<path fill="#E0A13B" d="M84.375,204.313v18.75c0,7.769,14.689,14.063,32.813,14.063S150,230.831,150,223.063v-18.75"/>
	<path fill="#FFF27D" d="M117.188,218.375c-18.123,0-32.813-6.294-32.813-14.063v18.75c0,6.646,10.776,12.204,25.248,13.674h8.347
		v-18.38C117.707,218.361,117.451,218.375,117.188,218.375"/>
	<path fill="#FFF27D" d="M84.375,185.563v18.75c0,7.769,14.689,14.063,32.813,14.063S150,212.081,150,204.313v-18.75"/>
	<path fill="#E2A440" d="M150,138.688v18.75c0,7.769,14.689,14.063,32.813,14.063s32.813-6.294,32.813-14.063v-18.75"/>
	<path fill="#FFF27D" d="M182.813,190.25c-18.123,0-32.813-6.294-32.813-14.063v18.75c0,6.646,10.775,12.204,25.246,13.674h8.35
		v-18.38C183.334,190.236,183.073,190.25,182.813,190.25"/>
	<path fill="#FFF27D" d="M182.813,152.75c-18.123,0-32.813-6.294-32.813-14.063v18.75c0,6.646,10.775,12.204,25.246,13.674h8.35
		v-18.38C183.334,152.736,183.073,152.75,182.813,152.75"/>
	<g opacity="0.5" enable-background="new    ">
		<g>
			<defs>
				<rect id="SVGID_5_" x="150" y="157.438" width="33.596" height="32.424"/>
			</defs>
			<clipPath id="SVGID_6_">
				<use xlink:href="#SVGID_5_"  overflow="visible"/>
			</clipPath>
			<path clip-path="url(#SVGID_6_)" fill="#FFFFFF" d="M182.813,171.5c-18.123,0-32.813-6.294-32.813-14.063v18.75
				c0,6.646,10.775,12.204,25.246,13.674h8.35v-18.38C183.334,171.486,183.073,171.5,182.813,171.5"/>
		</g>
	</g>
	<path fill="#E0A13B" d="M84.375,166.813v18.75c0,7.769,14.689,14.063,32.813,14.063S150,193.331,150,185.563v-18.75"/>
	<path fill="#FFF27D" d="M117.188,180.875c-18.123,0-32.813-6.294-32.813-14.063v18.75c0,6.646,10.776,12.204,25.248,13.674h8.347
		v-18.38C117.707,180.861,117.451,180.875,117.188,180.875"/>
	<g opacity="0.5" enable-background="new    ">
		<g>
			<defs>
				<rect id="SVGID_7_" x="84.375" y="185.563" width="33.593" height="32.424"/>
			</defs>
			<clipPath id="SVGID_8_">
				<use xlink:href="#SVGID_7_"  overflow="visible"/>
			</clipPath>
			<path clip-path="url(#SVGID_8_)" fill="#FFFFFF" d="M117.188,199.625c-18.123,0-32.813-6.294-32.813-14.063v18.75
				c0,6.646,10.776,12.204,25.248,13.674h8.347v-18.38C117.707,199.611,117.451,199.625,117.188,199.625"/>
		</g>
	</g>
	<path fill="#6060A5" d="M117.188,241.813c-18.638,0-37.5-6.44-37.5-18.75v-18.75c0-2.591,2.101-4.688,4.688-4.688
		s4.688,2.097,4.688,4.688v18.75c0,3.305,10.677,9.375,28.125,9.375s28.125-6.07,28.125-9.375v-18.75
		c0-2.591,2.101-4.688,4.688-4.688c2.586,0,4.688,2.097,4.688,4.688v18.75C154.688,235.372,135.825,241.813,117.188,241.813"/>
	<path fill="#6060A5" d="M117.188,223.063c-18.638,0-37.5-6.44-37.5-18.75v-18.75c0-2.591,2.101-4.688,4.688-4.688
		s4.688,2.097,4.688,4.688v18.75c0,3.305,10.677,9.375,28.125,9.375s28.125-6.07,28.125-9.375v-18.75
		c0-2.591,2.101-4.688,4.688-4.688c2.586,0,4.688,2.097,4.688,4.688v18.75C154.688,216.622,135.825,223.063,117.188,223.063"/>
	<path fill="#6060A5" d="M117.188,204.313c-18.638,0-37.5-6.44-37.5-18.75v-18.75c0-2.591,2.101-4.688,4.688-4.688
		s4.688,2.097,4.688,4.688v18.75c0,3.305,10.677,9.375,28.125,9.375s28.125-6.07,28.125-9.375v-18.75
		c0-2.591,2.101-4.688,4.688-4.688c2.586,0,4.688,2.097,4.688,4.688v18.75C154.688,197.872,135.825,204.313,117.188,204.313"/>
	<path fill="#FFF27D" d="M117.188,152.75c18.123,0,32.813,6.294,32.813,14.063s-14.689,14.063-32.813,14.063
		s-32.813-6.294-32.813-14.063S99.064,152.75,117.188,152.75"/>
	<path fill="#6060A5" d="M117.188,185.563c-18.638,0-37.5-6.44-37.5-18.75s18.862-18.75,37.5-18.75s37.5,6.44,37.5,18.75
		S135.825,185.563,117.188,185.563 M117.188,157.438c-17.448,0-28.125,6.07-28.125,9.375s10.677,9.375,28.125,9.375
		s28.125-6.07,28.125-9.375S134.635,157.438,117.188,157.438"/>
	<path fill="#FFF27D" d="M182.813,124.625c18.123,0,32.813,6.294,32.813,14.063s-14.689,14.063-32.813,14.063
		S150,146.456,150,138.688S164.689,124.625,182.813,124.625"/>
	<path fill="#6060A5" d="M182.813,157.438c-18.636,0-37.5-6.44-37.5-18.75s18.864-18.75,37.5-18.75s37.5,6.44,37.5,18.75
		S201.448,157.438,182.813,157.438 M182.813,129.313c-17.445,0-28.125,6.07-28.125,9.375s10.68,9.375,28.125,9.375
		s28.125-6.07,28.125-9.375S200.258,129.313,182.813,129.313"/>
	<path fill="#E0A13B" d="M215.625,194.938v18.75c0,7.769,14.689,14.063,32.813,14.063s32.813-6.294,32.813-14.063v-18.75"/>
	<path fill="#FFF27D" d="M248.438,209c-18.123,0-32.813-6.294-32.813-14.063v18.75c0,6.646,10.775,12.204,25.246,13.674h8.35v-18.38
		C248.959,208.986,248.698,209,248.438,209"/>
	<path fill="#6D6DAA" d="M182.813,251.188c-18.636,0-37.5-6.44-37.5-18.75v-18.75c0-2.591,2.101-4.688,4.688-4.688
		c2.586,0,4.688,2.097,4.688,4.688v18.75c0,3.305,10.68,9.375,28.125,9.375s28.125-6.07,28.125-9.375v-18.75
		c0-2.591,2.102-4.688,4.688-4.688s4.688,2.097,4.688,4.688v18.75C220.313,244.747,201.448,251.188,182.813,251.188"/>
	<path fill="#6060A5" d="M182.813,232.438c-18.636,0-37.5-6.44-37.5-18.75v-18.75c0-2.591,2.101-4.688,4.688-4.688
		c2.586,0,4.688,2.097,4.688,4.688v18.75c0,3.305,10.68,9.375,28.125,9.375s28.125-6.07,28.125-9.375v-18.75
		c0-2.591,2.102-4.688,4.688-4.688s4.688,2.097,4.688,4.688v18.75C220.313,225.997,201.448,232.438,182.813,232.438"/>
	<path fill="#6060A5" d="M182.813,213.688c-18.636,0-37.5-6.44-37.5-18.75v-18.75c0-2.591,2.101-4.688,4.688-4.688
		c2.586,0,4.688,2.097,4.688,4.688v18.75c0,3.305,10.68,9.375,28.125,9.375s28.125-6.07,28.125-9.375v-18.75
		c0-2.591,2.102-4.688,4.688-4.688s4.688,2.097,4.688,4.688v18.75C220.313,207.247,201.448,213.688,182.813,213.688"/>
	<path fill="#6060A5" d="M182.813,194.938c-18.636,0-37.5-6.44-37.5-18.75v-18.75c0-2.591,2.101-4.688,4.688-4.688
		c2.586,0,4.688,2.097,4.688,4.688v18.75c0,3.305,10.68,9.375,28.125,9.375s28.125-6.07,28.125-9.375v-18.75
		c0-2.591,2.102-4.688,4.688-4.688s4.688,2.097,4.688,4.688v18.75C220.313,188.497,201.448,194.938,182.813,194.938"/>
	<path fill="#5A5AA8" d="M182.813,176.188c-18.636,0-37.5-6.44-37.5-18.75v-18.75c0-2.586,2.101-4.688,4.688-4.688
		c2.586,0,4.688,2.102,4.688,4.688v18.75c0,3.305,10.68,9.375,28.125,9.375s28.125-6.07,28.125-9.375v-18.75
		c0-2.586,2.102-4.688,4.688-4.688s4.688,2.102,4.688,4.688v18.75C220.313,169.747,201.448,176.188,182.813,176.188"/>
	<path fill="#6060A5" d="M248.438,232.438c-18.636,0-37.5-6.44-37.5-18.75v-18.75c0-2.591,2.102-4.688,4.688-4.688
		s4.688,2.097,4.688,4.688v18.75c0,3.305,10.68,9.375,28.125,9.375s28.125-6.07,28.125-9.375v-18.75
		c0-2.591,2.102-4.688,4.688-4.688s4.688,2.097,4.688,4.688v18.75C285.938,225.997,267.073,232.438,248.438,232.438"/>
	<path fill="#FFF27D" d="M248.438,180.875c18.123,0,32.813,6.294,32.813,14.063S266.561,209,248.438,209
		s-32.813-6.294-32.813-14.063S230.314,180.875,248.438,180.875"/>
	<path fill="#6060A5" d="M248.438,213.688c-18.636,0-37.5-6.44-37.5-18.75s18.864-18.75,37.5-18.75s37.5,6.44,37.5,18.75
		S267.073,213.688,248.438,213.688 M248.438,185.563c-17.445,0-28.125,6.07-28.125,9.375s10.68,9.375,28.125,9.375
		s28.125-6.07,28.125-9.375S265.883,185.563,248.438,185.563"/>
	<path fill="#89DBBA" d="M65.625,77.75c5.175,0,9.375,4.2,9.375,9.375S70.8,96.5,65.625,96.5s-9.375-4.2-9.375-9.375
		S60.45,77.75,65.625,77.75"/>
	<path fill="#51519E" d="M65.625,101.188c-7.769,0-14.063-6.294-14.063-14.063s6.294-14.063,14.063-14.063
		s14.063,6.294,14.063,14.063C79.678,94.886,73.386,101.178,65.625,101.188 M65.625,82.438c-2.586,0-4.688,2.101-4.688,4.688
		s2.101,4.688,4.688,4.688s4.688-2.101,4.688-4.688S68.211,82.438,65.625,82.438"/>
	<path fill="#6060A5" d="M122.349,138.88c-1.128,0-2.225-0.412-3.078-1.153c-3.159-2.747-5.981-5.867-8.405-9.284
		c-1.396-1.964-1.069-4.674,0.755-6.253c5.244-4.879,11.563-8.445,18.443-10.425c-0.009-0.801-0.009-1.621-0.005-2.456
		c-0.313-1.119-0.778-2.193-1.378-3.186c-1.396-2.369-2.339-4.969-2.788-7.679c-1.341-2.804-2.092-5.841-2.208-8.945
		c-0.019-1.321,0.224-2.634,0.723-3.861c-0.076-0.433-0.151-0.872-0.222-1.314l-0.426-2.465c-2.085-7.64,1.477-15.699,8.535-19.299
		c0.009-0.256,0.021-0.524,0.034-0.792c0.131-2.609,0.305-5.859,3.491-7.116c1.856-0.627,3.905-0.19,5.344,1.14
		c3.521,2.115,7.397,3.578,11.435,4.326c1.396,0.357,2.514,0.647,3.168,0.881c8.711,2.838,13.619,12.058,11.097,20.865l-0.426,2.46
		c-0.073,0.442-0.146,0.881-0.22,1.314c0.499,1.227,0.736,2.541,0.719,3.861c-0.119,3.104-0.865,6.141-2.207,8.94
		c-0.457,2.765-1.419,5.427-2.828,7.851c-0.563,0.961-1.012,1.989-1.337,3.051l-0.005,0.478c-0.041,2.607-2.119,4.731-4.729,4.816
		c-2.495,0.073-4.573-1.891-4.651-4.383c0-0.034,0-0.066,0-0.098l0.005-0.492c0.138-2.714,0.957-5.349,2.381-7.665
		c0.942-1.531,1.584-3.23,1.886-5.001c0.032-0.631,0.188-1.252,0.462-1.824c0.925-1.758,1.488-3.687,1.648-5.671
		c0-0.05,0.004-0.08,0.018-0.084c-0.814-1.053-1.144-2.413-0.893-3.727c0.174-0.94,0.339-1.916,0.509-2.916l0.439-2.568
		c1.291-7.157-1.996-9.304-5.004-10.369c-0.476-0.174-1.305-0.371-2.339-0.634c-3.095-0.73-6.141-1.659-9.119-2.778
		c-0.371,1.632-1.49,2.996-3.019,3.68c-4.129,1.195-6.509,5.511-5.314,9.641c0.046,0.156,0.094,0.311,0.148,0.46l0.442,2.568
		c0.169,1,0.332,1.976,0.506,2.916c0.245,1.296-0.066,2.625-0.854,3.681c0.132,2.025,0.684,4.003,1.627,5.802
		c0.277,0.572,0.43,1.193,0.464,1.824c0.282,1.696,0.899,3.328,1.817,4.786c1.421,2.277,2.261,4.866,2.442,7.542
		c-0.004,1.407-0.004,2.737,0.048,3.998c0.13,3.56-2.38,6.661-5.887,7.276c-4.521,0.984-8.752,2.989-12.367,5.873
		c1.302,1.485,2.71,2.886,4.2,4.191c1.955,1.701,2.156,4.663,0.455,6.613C124.995,138.294,123.704,138.88,122.349,138.88
		 M157.97,89.86l0.005,0.004L157.97,89.86z M134.317,61.547l-0.014,0.004L134.317,61.547z"/>
</g>
</svg>
